# Tiled2Unity generated file. Do not modify by hand.
# Wavefront file for 'InitialIsland_mesh_0003.obj'

# Vertices (Count = 64)
v -3 -4 0
v -4 -4 0
v -4 -3 0
v -3 -3 0
v -9 -4 0
v -10 -4 0
v -10 -3 0
v -9 -3 0
v -2 -5 0
v -3 -5 0
v -3 -4 0
v -2 -4 0
v -3 -5 0
v -4 -5 0
v -4 -4 0
v -3 -4 0
v -13 -5 0
v -14 -5 0
v -14 -4 0
v -13 -4 0
v -3 -6 0
v -4 -6 0
v -4 -5 0
v -3 -5 0
v -7 -6 0
v -8 -6 0
v -8 -5 0
v -7 -5 0
v -12 -6 0
v -13 -6 0
v -13 -5 0
v -12 -5 0
v -14 -6 0
v -15 -6 0
v -15 -5 0
v -14 -5 0
v -8 -7 0
v -9 -7 0
v -9 -6 0
v -8 -6 0
v -15 -7 0
v -16 -7 0
v -16 -6 0
v -15 -6 0
v -11 -8 0
v -12 -8 0
v -12 -7 0
v -11 -7 0
v -16 -8 0
v -17 -8 0
v -17 -7 0
v -16 -7 0
v -12 -9 0
v -13 -9 0
v -13 -8 0
v -12 -8 0
v -18 -9 0
v -19 -9 0
v -19 -8 0
v -18 -8 0
v -19 -10 0
v -20 -10 0
v -20 -9 0
v -19 -9 0

# Texture cooridinates (Count = 20)
vt 0.3125 0.1666667
vt 0.375 0.1666667
vt 0.375 0.3333333
vt 0.3125 0.3333333
vt 0.4375 0
vt 0.5 0
vt 0.5 0.1666667
vt 0.4375 0.1666667
vt 0.0625 0.3333333
vt 0.125 0.3333333
vt 0.125 0.5
vt 0.0625 0.5
vt 0.1875 0.3333333
vt 0.1875 0.5
vt 0.375 0
vt 0 0.1666667
vt 0.0625 0.1666667
vt 0 0.3333333
vt 0.125 0.1666667
vt 0.1875 0.1666667

# Normal
vn 0 0 -1

# Mesh description
g InitialIsland_mesh_0003

# Faces
f 1/1/1 2/2/1 3/3/1 4/4/1
f 5/5/1 6/6/1 7/7/1 8/8/1
f 9/5/1 10/6/1 11/7/1 12/8/1
f 13/9/1 14/10/1 15/11/1 16/12/1
f 17/10/1 18/13/1 19/14/1 20/11/1
f 21/15/1 22/5/1 23/8/1 24/2/1
f 25/16/1 26/17/1 27/9/1 28/18/1
f 29/15/1 30/5/1 31/8/1 32/2/1
f 33/1/1 34/2/1 35/3/1 36/4/1
f 37/15/1 38/5/1 39/8/1 40/2/1
f 41/5/1 42/6/1 43/7/1 44/8/1
f 45/9/1 46/10/1 47/11/1 48/12/1
f 49/15/1 50/5/1 51/8/1 52/2/1
f 53/1/1 54/2/1 55/3/1 56/4/1
f 57/19/1 58/20/1 59/13/1 60/10/1
f 61/17/1 62/19/1 63/10/1 64/9/1

