# Tiled2Unity generated file. Do not modify by hand.
# Wavefront file for 'InitialIsland_mesh_0001.obj'

# Vertices (Count = 76)
v -1 -3 0
v -2 -3 0
v -2 -2 0
v -1 -2 0
v -2 -3 0
v -3 -3 0
v -3 -2 0
v -2 -2 0
v -3 -3 0
v -4 -3 0
v -4 -2 0
v -3 -2 0
v -4 -3 0
v -5 -3 0
v -5 -2 0
v -4 -2 0
v -1 -4 0
v -2 -4 0
v -2 -3 0
v -1 -3 0
v -2 -4 0
v -3 -4 0
v -3 -3 0
v -2 -3 0
v -3 -4 0
v -4 -4 0
v -4 -3 0
v -3 -3 0
v -4 -4 0
v -5 -4 0
v -5 -3 0
v -4 -3 0
v -1 -5 0
v -2 -5 0
v -2 -4 0
v -1 -4 0
v -2 -5 0
v -3 -5 0
v -3 -4 0
v -2 -4 0
v -3 -5 0
v -4 -5 0
v -4 -4 0
v -3 -4 0
v -4 -5 0
v -5 -5 0
v -5 -4 0
v -4 -4 0
v -1 -6 0
v -2 -6 0
v -2 -5 0
v -1 -5 0
v -2 -6 0
v -3 -6 0
v -3 -5 0
v -2 -5 0
v -3 -6 0
v -4 -6 0
v -4 -5 0
v -3 -5 0
v -4 -6 0
v -5 -6 0
v -5 -5 0
v -4 -5 0
v -2 -7 0
v -3 -7 0
v -3 -6 0
v -2 -6 0
v -3 -7 0
v -4 -7 0
v -4 -6 0
v -3 -6 0
v -4 -7 0
v -5 -7 0
v -5 -6 0
v -4 -6 0

# Texture cooridinates (Count = 26)
vt 0 0.8333333
vt 0.0625 0.8333333
vt 0.0625 1
vt 0 1
vt 0.125 0.8333333
vt 0.125 1
vt 0.1875 0.8333333
vt 0.1875 1
vt 0 0.6666666
vt 0.0625 0.6666666
vt 0.25 0.1666667
vt 0.3125 0.1666667
vt 0.3125 0.3333333
vt 0.25 0.3333333
vt 0.1875 0.1666667
vt 0.1875 0.3333333
vt 0.125 0.6666666
vt 0.1875 0.6666666
vt 0 0.5
vt 0.0625 0.5
vt 0.25 0.8333333
vt 0.3125 0.8333333
vt 0.3125 1
vt 0.25 1
vt 0.125 0.5
vt 0.1875 0.5

# Normal
vn 0 0 -1

# Mesh description
g InitialIsland_mesh_0001

# Faces
f 1/1/1 2/2/1 3/3/1 4/4/1
f 5/2/1 6/5/1 7/6/1 8/3/1
f 9/2/1 10/5/1 11/6/1 12/3/1
f 13/5/1 14/7/1 15/8/1 16/6/1
f 17/9/1 18/10/1 19/2/1 20/1/1
f 21/11/1 22/12/1 23/13/1 24/14/1
f 25/15/1 26/11/1 27/14/1 28/16/1
f 29/17/1 30/18/1 31/7/1 32/5/1
f 33/9/1 34/10/1 35/2/1 36/1/1
f 37/15/1 38/11/1 39/14/1 40/16/1
f 41/11/1 42/12/1 43/13/1 44/14/1
f 45/17/1 46/18/1 47/7/1 48/5/1
f 49/19/1 50/20/1 51/10/1 52/9/1
f 53/21/1 54/22/1 55/23/1 56/24/1
f 57/15/1 58/11/1 59/14/1 60/16/1
f 61/17/1 62/18/1 63/7/1 64/5/1
f 65/19/1 66/20/1 67/10/1 68/9/1
f 69/20/1 70/25/1 71/17/1 72/10/1
f 73/25/1 74/26/1 75/18/1 76/17/1

